<svg width="27" height="27" viewBox="0 0 27 27" fill="none" xmlns="http://www.w3.org/2000/svg">
<path fill-rule="evenodd" clip-rule="evenodd" d="M8.57573 21.5659C9.03149 21.5659 9.40193 21.9364 9.40193 22.3921C9.40193 22.8479 9.03149 23.2172 8.57573 23.2172C8.11997 23.2172 7.75061 22.8479 7.75061 22.3921C7.75061 21.9364 8.11997 21.5659 8.57573 21.5659Z" stroke="#C92071" stroke-width="1.62" stroke-linecap="round" stroke-linejoin="round"/>
<path fill-rule="evenodd" clip-rule="evenodd" d="M20.7284 21.5659C21.1841 21.5659 21.5546 21.9364 21.5546 22.3921C21.5546 22.8479 21.1841 23.2172 20.7284 23.2172C20.2726 23.2172 19.9022 22.8479 19.9022 22.3921C19.9022 21.9364 20.2726 21.5659 20.7284 21.5659Z" stroke="#C92071" stroke-width="1.62" stroke-linecap="round" stroke-linejoin="round"/>
<path d="M3.52972 3.67004L5.77612 4.05884L6.81616 16.4497C6.9004 17.4595 7.74388 18.2349 8.75692 18.2349H20.5419C21.5096 18.2349 22.3304 17.5243 22.4697 16.5652L23.4946 9.4826C23.621 8.60888 22.9438 7.82696 22.0614 7.82696H6.13684" stroke="#C92071" stroke-width="1.62" stroke-linecap="round" stroke-linejoin="round"/>
<path d="M15.8152 11.8186H18.8101" stroke="#C92071" stroke-width="1.62" stroke-linecap="round" stroke-linejoin="round"/>
</svg>
